<svg xmlns="http://www.w3.org/2000/svg" xmlns:xlink="http://www.w3.org/1999/xlink" viewBox="0 0 1436.55 1681.45"><defs><style>.cls-1{fill:#39b54a;}.cls-2{fill:#056839;}.cls-3{fill:#e3a429;}.cls-4{fill:url(#linear-gradient);}.cls-5{fill:url(#linear-gradient-2);}.cls-6{fill:url(#linear-gradient-3);}</style><linearGradient id="linear-gradient" x1="282.19" y1="276.85" x2="759.73" y2="276.85" gradientUnits="userSpaceOnUse"><stop offset="0" stop-color="#8fc645"/><stop offset="1" stop-color="#01612d"/></linearGradient><linearGradient id="linear-gradient-2" x1="720.19" y1="421.22" x2="1195.7" y2="421.22" xlink:href="#linear-gradient"/><linearGradient id="linear-gradient-3" x1="422.42" y1="641.23" x2="1056.9" y2="641.23" xlink:href="#linear-gradient"/></defs><g id="Layer_2" data-name="Layer 2"><g id="Layer_1-2" data-name="Layer 1"><path class="cls-1" d="M735.31,1120.69q-7.87,7.88-22.76,12.08T676.86,1137a123.68,123.68,0,0,1-39.34-6.19Q619,1124.64,607.17,1101L551.54,987.49q-8.43-17.41-15.18-32.87t-14.61-35.69l-3.37.56q2.24,30.35,2.53,61.82t.28,61.82v87.11a154.73,154.73,0,0,1-18.83,3.37,188.11,188.11,0,0,1-25,1.69,126.59,126.59,0,0,1-21.92-1.69,33.51,33.51,0,0,1-15.73-6.74,32.4,32.4,0,0,1-9.56-13.77q-3.36-8.7-3.37-22.76v-281q7.86-11.24,24.17-16.86a106.3,106.3,0,0,1,34.84-5.62,121.4,121.4,0,0,1,39.62,6.46q18.83,6.46,30.07,29.51l56.2,113.52q8.43,17.43,15.17,32.88t14.62,35.69l2.81-.57Q642,974,641.46,943.66t-.57-60.7v-91a154.35,154.35,0,0,1,18.83-3.37,188.11,188.11,0,0,1,25-1.69q24.72,0,37.65,8.71t12.93,36.25Z"/><path class="cls-2" d="M885.39,1026.93q-19.29-6.57-35-13.36a107.5,107.5,0,0,1-27.16-16.42,68,68,0,0,1-17.74-23q-6.35-13.35-6.35-32.63,0-37.21,28.69-59.57t80.37-22.33a219.43,219.43,0,0,1,35,2.62q16.2,2.64,27.82,8.11t18.17,14a31.78,31.78,0,0,1,6.57,19.93q0,11.4-5.25,19.49a54.44,54.44,0,0,1-12.71,13.8q-9.63-6.14-25.84-10.73a129.42,129.42,0,0,0-35.47-4.6q-19.71,0-28.91,5.47t-9.2,13.8a12.72,12.72,0,0,0,5.69,10.73q5.68,4.17,17.09,7.67l23.21,7.44q41.16,13.14,63.29,33.51t22.12,55.41q0,37.23-29.35,60.22t-86.28,23a200.79,200.79,0,0,1-37.45-3.29,118.57,118.57,0,0,1-30.22-9.63q-12.93-6.35-20.15-15.77a34.62,34.62,0,0,1-7.23-21.68q0-12.7,7.45-21.68a56.92,56.92,0,0,1,16.2-13.8q12.27,9.64,30,16.64a104.37,104.37,0,0,0,38.76,7q21.45,0,30.22-6.57t8.76-15.33q0-8.76-7-13.36t-19.71-9Z"/><path class="cls-3" d="M1371.24,879.5l-25.68-6.37a86.18,86.18,0,0,1-39-145.62l18.94-18.41c64.55-62.39,2.69-169.5-83.58-144.81l-25.5,7.18A86.18,86.18,0,0,1,1109.89,465l7.27-25.5c.61-2.13,1.12-4.25,1.57-6.35-48,64.06-113.42,108.66-188.67,134.35C1071.08,643.14,1167,792,1167,963.18c0,247.82-200.9,448.71-448.71,448.71v-.09c-247.8,3.51-451.52-194.52-455-442.32-2-139.93,60.32-265.81,159.55-349.51-1.54-23.48,1.66-48.74,7.86-74.42,1.7,22.15,7.27,40.48,16.06,55.61A447.15,447.15,0,0,1,543.9,547c-111.12-19.57-184.06-80-224-158.25-5,15.17-5.73,32.43-.47,50.8l7.18,25.5A86.19,86.19,0,0,1,220.09,571.56l-25.49-7.27C108.41,539.6,46.46,646.71,111,709.1L130,727.51A86.18,86.18,0,0,1,91,873.13L65.31,879.5c-87.08,21.82-87.08,145.45,0,167.35L91,1053.23a86.18,86.18,0,0,1,39,145.62L111,1217.25c-64.55,62.4-2.69,169.51,83.59,144.82l25.49-7.19a86.19,86.19,0,0,1,106.57,106.57l-7.27,25.41c-24.69,86.19,82.42,148.13,144.81,83.58l18.41-18.94a86.19,86.19,0,0,1,145.62,39l6.37,25.68c21.82,87.09,145.44,87.09,167.35,0l6.37-25.68a86.2,86.2,0,0,1,145.63-39l18.4,18.94c62.4,64.55,169.5,2.7,144.81-83.58l-7.18-25.5a86.19,86.19,0,0,1,106.57-106.57l25.41,7.28c86.18,24.69,148.13-82.42,83.58-144.82l-18.94-18.4a86.18,86.18,0,0,1,39-145.62l25.68-6.38C1458.32,1025,1458.32,901.41,1371.24,879.5Z"/><path class="cls-4" d="M758.75,539.19c-148.68-25.46-245-132.69-277.56-279.14,17.42,59.58,102.13,171.78,238.17,226.84C841.11,212.29,679.6-1.68,340.83,0,203,244.73,294.79,633.68,758.75,539.19Z"/><path class="cls-5" d="M813.51,317.37a128.29,128.29,0,0,0-12.32,31.75c-21.56,88.16-37,124-50.37,142.24,61.32-23.08,175.08-73,231.87-29.38-110.22-23.41-205.06,43.63-262.5,130.29,227.91,16.4,431.89-94.81,475.51-343.67C988.07,355.64,890.64,182.05,813.51,317.37Z"/><path class="cls-6" d="M479.38,716.69c34.49,20.54,81.32,24.14,136.29,16.58,146.87-19.54,277.27-37.77,441.23-35C924.73,575.41,449.25,786.84,430.67,545.55,414,614.46,419,680.4,479.38,716.69Z"/></g></g></svg>