<svg xmlns="http://www.w3.org/2000/svg" viewBox="0 0 510.3 468"><defs><style>.cls-1{fill:#606060;}.cls-2{fill:#161515;}.cls-3{fill:#353535;}</style></defs><g id="Layer_2" data-name="Layer 2"><g id="Layer_1-2" data-name="Layer 1"><path class="cls-1" d="M276.57,3.7q8.88,0,12.76,5.54t3.88,16.27a64.43,64.43,0,0,1-1.29,11.65,35.89,35.89,0,0,1-3.14,10.17H255.5v186q-3,1.11-11.83,2.22a132.09,132.09,0,0,1-16.27,1.11q-16.28,0-24.41-5T194.86,210V149a24.06,24.06,0,0,1-5.92.74H183a91.76,91.76,0,0,1-20-2.22,71.82,71.82,0,0,1-17.75-6.28l-.74,1.1a37.56,37.56,0,0,1,9.62,14.06,45,45,0,0,1,3.69,17.37q0,27-22,41.79t-62.3,14.78a149.49,149.49,0,0,1-28.47-2.58,95.29,95.29,0,0,1-23.29-7.4,46.86,46.86,0,0,1-15.9-11.83A24,24,0,0,1,0,192.64q0-11.83,6.66-19.41t14.05-9.8a89.8,89.8,0,0,0,19.78,13.13,56.77,56.77,0,0,0,26.06,6.1q14.43,0,21.82-6.1t7.39-16.83A22.22,22.22,0,0,0,90,144.2q-5.73-6.28-17.19-6.28H38.08a29.13,29.13,0,0,1-4.8-9.62A44.23,44.23,0,0,1,31.43,115a45.74,45.74,0,0,1,1.85-13.68,34.2,34.2,0,0,1,4.8-10H66.93q11.82,0,18.3-5.55T91.7,70.25a22.76,22.76,0,0,0-6.1-15.9Q79.5,47.71,64,47.7a41.58,41.58,0,0,0-16.64,3.51,48.31,48.31,0,0,0-14,9.06A38,38,0,0,1,17.93,49,26.24,26.24,0,0,1,12.2,32.17q0-14.43,15.72-23.3T73.58,0a112.84,112.84,0,0,1,32.54,4.44A77.64,77.64,0,0,1,131.45,17a58.46,58.46,0,0,1,16.45,19.6,54,54,0,0,1,5.92,25.14,47,47,0,0,1-5.18,21.63,56.08,56.08,0,0,1-13.31,17.19,126.15,126.15,0,0,0,24,2.22,142.77,142.77,0,0,0,17.75-1.11,91.68,91.68,0,0,0,17.75-4.07V47.33H180.07q-9.24,0-12.94-5.73t-3.7-16.83a69.77,69.77,0,0,1,1.11-11.09,32.07,32.07,0,0,1,3-10Z"/><path class="cls-2" d="M356.49,246.89q6.28-3.69,19-7a101.33,101.33,0,0,1,25.7-3.33q18.48,0,32.72,5.37t18.3,16.82q6.66,19.23,14.42,44.74t15.53,52.69q7.77,27.18,15.16,53.61t12.94,46.78q-4.43,5.18-13.31,8.32A63.35,63.35,0,0,1,475.92,468a65,65,0,0,1-15-1.48,26.65,26.65,0,0,1-10-4.44,21.74,21.74,0,0,1-6.29-7.76,67.15,67.15,0,0,1-4.25-11.09l-6.65-25.52H366.84q-3,11.1-5.92,22.93T355,463.56a96.49,96.49,0,0,1-10.91,3.15A64.12,64.12,0,0,1,330.24,468q-18.87,0-27.92-6.47t-9.06-17.93a37.48,37.48,0,0,1,1.48-10.36q1.47-5.16,3.33-12.2,2.58-10,7.21-24.77t10.17-32Q321,347.09,327.28,329t11.83-34.2q5.55-16.08,10.17-28.65T356.49,246.89Zm44.37,47.7q-5.19,15.53-11.65,34.57T377.56,367.8h45.85q-5.18-20-10.54-39t-9.79-34.2Z"/><path class="cls-3" d="M140.59,334.5V290.25a14.06,14.06,0,0,0-4.11-9.93l-21.09-21.09a14.05,14.05,0,0,0-24,9.94v73.17a55.41,55.41,0,0,0,55.41,55.41H220a14.05,14.05,0,0,0,9.94-24l-21.08-21.09a14.1,14.1,0,0,0-9.94-4.11H154.65A14.07,14.07,0,0,1,140.59,334.5Z"/><path class="cls-3" d="M369.71,133.5v44.25a14.06,14.06,0,0,0,4.11,9.93l21.09,21.09a14.05,14.05,0,0,0,24-9.94V111.71a41.46,41.46,0,0,0-41.46-41.46H290.32a14.05,14.05,0,0,0-9.94,24l21.09,21.09a14.06,14.06,0,0,0,9.94,4.11h44.24A14.07,14.07,0,0,1,369.71,133.5Z"/></g></g></svg>