<svg xmlns="http://www.w3.org/2000/svg" viewBox="0 0 512 512"><defs><style>.cls-1{fill:#d8d8d8;}.cls-2{fill:#606060;}.cls-3{fill:#161515;}.cls-4{fill:#353535;}</style></defs><g id="Layer_2" data-name="Layer 2"><g id="Layer_1-2" data-name="Layer 1"><circle class="cls-1" cx="256" cy="256" r="256"/><path class="cls-2" d="M271.24,92.15q6.31,0,9.08,3.95t2.76,11.57a46,46,0,0,1-.92,8.29,25.17,25.17,0,0,1-2.24,7.23H256.25V255.51a44.73,44.73,0,0,1-8.42,1.58,93.19,93.19,0,0,1-11.57.79q-11.58,0-17.37-3.55t-5.78-15.39V195.53a16.93,16.93,0,0,1-4.21.53h-4.21a65.49,65.49,0,0,1-14.21-1.58A50.78,50.78,0,0,1,177.86,190l-.53.79a26.77,26.77,0,0,1,6.84,10,32,32,0,0,1,2.63,12.36q0,19.2-15.65,29.73t-44.33,10.52a106.61,106.61,0,0,1-20.25-1.84A67.65,67.65,0,0,1,90,246.3a33.41,33.41,0,0,1-11.32-8.41,17.12,17.12,0,0,1-4.2-11.31q0-8.42,4.73-13.82t10-7a63.74,63.74,0,0,0,14.07,9.34,40.29,40.29,0,0,0,18.54,4.34q10.26,0,15.52-4.34t5.27-12a15.77,15.77,0,0,0-4.08-11q-4.08-4.49-12.23-4.48H101.57a20.64,20.64,0,0,1-3.42-6.84,31.55,31.55,0,0,1-1.32-9.47,32.58,32.58,0,0,1,1.32-9.73,24.31,24.31,0,0,1,3.42-7.1h20.52q8.41,0,13-3.95t4.6-11.05a16.15,16.15,0,0,0-4.34-11.31Q131,123.47,120,123.46a29.47,29.47,0,0,0-11.83,2.5,34.39,34.39,0,0,0-10,6.44,27.12,27.12,0,0,1-10.92-8,18.66,18.66,0,0,1-4.07-12q0-10.26,11.18-16.57t32.48-6.32A80.44,80.44,0,0,1,150,92.68a55.19,55.19,0,0,1,18,8.94,41.56,41.56,0,0,1,11.71,13.95,38.47,38.47,0,0,1,4.21,17.88,33.39,33.39,0,0,1-3.69,15.39,39.48,39.48,0,0,1-9.47,12.23,89.27,89.27,0,0,0,17.1,1.58,101,101,0,0,0,12.63-.79A64.65,64.65,0,0,0,213.11,159V123.19H202.58q-6.57,0-9.2-4.07t-2.63-12a50,50,0,0,1,.78-7.89,23,23,0,0,1,2.11-7.11Z"/><path class="cls-3" d="M328.09,265.17q4.47-2.62,13.55-5a72,72,0,0,1,18.28-2.37,65.84,65.84,0,0,1,23.28,3.82q10.13,3.81,13,12,4.72,13.68,10.25,31.83t11,37.48q5.54,19.34,10.79,38.15t9.2,33.27q-3.15,3.69-9.46,5.92a45,45,0,0,1-15,2.24,46,46,0,0,1-10.65-1.06,19.12,19.12,0,0,1-7.11-3.15,15.46,15.46,0,0,1-4.47-5.53,46.66,46.66,0,0,1-3-7.89l-4.74-18.15H335.46q-2.11,7.89-4.21,16.31T327,419.32a69.67,69.67,0,0,1-7.76,2.24,45.72,45.72,0,0,1-9.86.92q-13.43,0-19.86-4.61a14.79,14.79,0,0,1-6.45-12.75,26.78,26.78,0,0,1,1.05-7.37c.7-2.45,1.49-5.35,2.37-8.68q1.85-7.11,5.13-17.63t7.24-22.75q3.94-12.22,8.41-25.12t8.42-24.34q3.94-11.43,7.24-20.38T328.09,265.17Zm31.57,33.93q-3.69,11.06-8.29,24.6t-8.28,27.49h32.62q-3.69-14.2-7.5-27.75t-7-24.34Z"/><path class="cls-4" d="M174.5,327.5V296a10,10,0,0,0-2.93-7.07l-15-15A10,10,0,0,0,139.5,281v52.06a39.42,39.42,0,0,0,39.42,39.42H231a10,10,0,0,0,7.07-17.07l-15-15A10,10,0,0,0,216,337.5H184.5A10,10,0,0,1,174.5,327.5Z"/><path class="cls-4" d="M337.5,184.5V216a10,10,0,0,0,2.93,7.07l15,15A10,10,0,0,0,372.5,231V169A29.5,29.5,0,0,0,343,139.5H281A10,10,0,0,0,274,156.57l15,15A10,10,0,0,0,296,174.5H327.5A10,10,0,0,1,337.5,184.5Z"/></g></g></svg>