<?xml version="1.0" encoding="utf-8"?>
<!-- Generator: Adobe Illustrator 25.2.0, SVG Export Plug-In . SVG Version: 6.00 Build 0)  -->
<svg version="1.1" id="Layer_1" xmlns="http://www.w3.org/2000/svg" xmlns:xlink="http://www.w3.org/1999/xlink" x="0px" y="0px"
	 viewBox="0 0 1436.6 1681.4" style="enable-background:new 0 0 1436.6 1681.4;" xml:space="preserve">
<style type="text/css">
	.st0{fill:#99E9A4;}
	.st1{fill:#76F787;}
	.st2{fill:#FDD484;}
	.st3{fill:url(#SVGID_1_);}
	.st4{fill:url(#SVGID_2_);}
	.st5{fill:url(#SVGID_3_);}
</style>
<g id="Layer_2_1_">
	<g id="Layer_1-2">
		<path class="st0" d="M735.3,1120.7c-5.2,5.3-12.8,9.3-22.8,12.1c-9.9,2.8-21.8,4.2-35.7,4.2c-13.4,0.1-26.6-2-39.3-6.2
			c-12.3-4.1-22.5-14.1-30.3-29.8l-55.6-113.5c-5.6-11.6-10.7-22.6-15.2-32.9s-9.4-22.2-14.6-35.7l-3.4,0.6
			c1.5,20.2,2.3,40.8,2.5,61.8c0.2,21,0.3,41.6,0.3,61.8v87.1c-6.2,1.5-12.5,2.6-18.8,3.4c-8.3,1.1-16.6,1.7-25,1.7
			c-7.3,0.1-14.7-0.5-21.9-1.7c-5.7-0.8-11.2-3.2-15.7-6.7c-4.3-3.7-7.6-8.4-9.6-13.8c-2.2-5.8-3.4-13.4-3.4-22.8v-281
			c5.2-7.5,13.3-13.1,24.2-16.9c11.2-3.8,23-5.7,34.8-5.6c13.5-0.1,26.9,2.1,39.6,6.5c12.6,4.3,22.6,14.1,30.1,29.5l56.2,113.5
			c5.6,11.6,10.7,22.6,15.2,32.9c4.5,10.3,9.4,22.2,14.6,35.7l2.8-0.6c-1.5-20.2-2.5-40.5-2.8-60.7s-0.5-40.5-0.6-60.7v-91
			c6.2-1.5,12.5-2.6,18.8-3.4c8.3-1.1,16.6-1.7,25-1.7c16.5,0,29,2.9,37.7,8.7c8.6,5.8,12.9,17.9,12.9,36.2L735.3,1120.7z"/>
		<path class="st1" d="M885.4,1026.9c-12.9-4.4-24.5-8.8-35-13.4c-9.8-4.1-19-9.6-27.2-16.4c-7.5-6.3-13.6-14.1-17.7-23
			c-4.2-8.9-6.3-19.8-6.3-32.6c0-24.8,9.6-44.7,28.7-59.6c19.1-14.9,45.9-22.3,80.4-22.3c11.7-0.1,23.4,0.8,35,2.6
			c10.8,1.8,20.1,4.5,27.8,8.1c7.7,3.6,13.8,8.3,18.2,14c4.4,5.7,6.7,12.7,6.6,19.9c0,7.6-1.8,14.1-5.2,19.5
			c-3.4,5.3-7.7,10-12.7,13.8c-6.4-4.1-15-7.7-25.8-10.7c-11.6-3.2-23.5-4.7-35.5-4.6c-13.1,0-22.8,1.8-28.9,5.5
			c-6.1,3.6-9.2,8.2-9.2,13.8c0,4.3,2.1,8.3,5.7,10.7c3.8,2.8,9.5,5.3,17.1,7.7l23.2,7.4c27.4,8.8,48.5,19.9,63.3,33.5
			c14.8,13.6,22.1,32.1,22.1,55.4c0,24.8-9.8,44.9-29.3,60.2c-19.6,15.3-48.3,23-86.3,23c-12.6,0.1-25.1-1-37.5-3.3
			c-10.5-1.8-20.6-5.1-30.2-9.6c-8.6-4.2-15.3-9.5-20.2-15.8c-4.8-6.2-7.3-13.8-7.2-21.7c0-8.5,2.5-15.7,7.5-21.7
			c4.5-5.6,10-10.3,16.2-13.8c8.2,6.4,18.2,12,30,16.6c12.4,4.8,25.5,7.1,38.8,7c14.3,0,24.4-2.2,30.2-6.6c5.8-4.4,8.8-9.5,8.8-15.3
			c0-5.8-2.3-10.3-7-13.4c-4.7-3.1-11.2-6.1-19.7-9L885.4,1026.9z"/>
		<path class="st2" d="M1371.2,879.5l-25.7-6.4c-46.2-11.5-74.3-58.3-62.8-104.5c3.9-15.7,12.1-29.9,23.8-41.1l18.9-18.4
			c64.6-62.4,2.7-169.5-83.6-144.8l-25.5,7.2c-45.8,13.1-93.5-13.5-106.5-59.2c-4.4-15.4-4.4-31.8,0-47.2l7.3-25.5
			c0.6-2.1,1.1-4.2,1.6-6.4c-48,64.1-113.4,108.7-188.7,134.4c141,75.6,236.9,224.5,236.9,395.7c0,247.8-200.9,448.7-448.7,448.7
			v-0.1c-247.8,3.5-451.5-194.5-455-442.3c-2-139.9,60.3-265.8,159.5-349.5c-1.5-23.5,1.7-48.7,7.9-74.4
			c1.7,22.2,7.3,40.5,16.1,55.6c30-22,62.6-40.2,97.1-54.2c-111.1-19.6-184.1-80-224-158.2c-5,15.2-5.7,32.4-0.5,50.8l7.2,25.5
			c13,45.8-13.5,93.5-59.3,106.5c-15.4,4.4-31.8,4.4-47.3,0l-25.5-7.3c-86.2-24.7-148.1,82.4-83.6,144.8l19,18.4
			c34.2,33.1,35.2,87.6,2.1,121.9c-11.2,11.6-25.5,19.9-41.1,23.8l-25.7,6.4c-87.1,21.8-87.1,145.4,0,167.3l25.7,6.4
			c46.2,11.5,74.3,58.3,62.8,104.5c-3.9,15.7-12.1,29.9-23.8,41.1l-19,18.4c-64.6,62.4-2.7,169.5,83.6,144.8l25.5-7.2
			c45.8-13.1,93.5,13.4,106.6,59.2c4.4,15.5,4.4,31.9,0,47.4l-7.3,25.4c-24.7,86.2,82.4,148.1,144.8,83.6l18.4-18.9
			c33.1-34.2,87.6-35.2,121.9-2.1c11.6,11.2,19.8,25.5,23.7,41.1l6.4,25.7c21.8,87.1,145.4,87.1,167.3,0l6.4-25.7
			c11.5-46.2,58.3-74.3,104.5-62.7c15.7,3.9,29.9,12.1,41.1,23.7l18.4,18.9c62.4,64.6,169.5,2.7,144.8-83.6l-7.2-25.5
			c-13.1-45.8,13.4-93.5,59.2-106.6c15.5-4.4,31.9-4.4,47.4,0l25.4,7.3c86.2,24.7,148.1-82.4,83.6-144.8l-18.9-18.4
			c-34.2-33.1-35.2-87.6-2.1-121.9c11.2-11.6,25.5-19.9,41.1-23.8l25.7-6.4C1458.3,1025,1458.3,901.4,1371.2,879.5z"/>
		
			<linearGradient id="SVGID_1_" gradientUnits="userSpaceOnUse" x1="282.1783" y1="1405.1593" x2="759.7289" y2="1405.1593" gradientTransform="matrix(1 0 0 -1 0 1682)">
			<stop  offset="0" style="stop-color:#90F79E"/>
			<stop  offset="1" style="stop-color:#1AAF2D"/>
		</linearGradient>
		<path class="st3" d="M758.8,539.2c-148.7-25.5-245-132.7-277.6-279.1c17.4,59.6,102.1,171.8,238.2,226.8
			C841.1,212.3,679.6-1.7,340.8,0C203,244.7,294.8,633.7,758.8,539.2z"/>
		
			<linearGradient id="SVGID_2_" gradientUnits="userSpaceOnUse" x1="720.19" y1="1260.776" x2="1195.7" y2="1260.776" gradientTransform="matrix(1 0 0 -1 0 1682)">
			<stop  offset="0" style="stop-color:#90F79E"/>
			<stop  offset="1" style="stop-color:#1AAF2D"/>
		</linearGradient>
		<path class="st4" d="M813.5,317.4c-5.5,10-9.6,20.7-12.3,31.8c-21.6,88.2-37,124-50.4,142.2c61.3-23.1,175.1-73,231.9-29.4
			c-110.2-23.4-205.1,43.6-262.5,130.3c227.9,16.4,431.9-94.8,475.5-343.7C988.1,355.6,890.6,182.1,813.5,317.4z"/>
		
			<linearGradient id="SVGID_3_" gradientUnits="userSpaceOnUse" x1="422.4186" y1="1040.7692" x2="1056.9" y2="1040.7692" gradientTransform="matrix(1 0 0 -1 0 1682)">
			<stop  offset="0" style="stop-color:#90F79E"/>
			<stop  offset="1" style="stop-color:#1AAF2D"/>
		</linearGradient>
		<path class="st5" d="M479.4,716.7c34.5,20.5,81.3,24.1,136.3,16.6c146.9-19.5,277.3-37.8,441.2-35
			c-132.2-122.9-607.7,88.6-626.2-152.7C414,614.5,419,680.4,479.4,716.7z"/>
	</g>
</g>
</svg>
